<?xml version="1.0" encoding="UTF-8"?>
<svg preserveAspectRatio="none" id="Layer_1" xmlns="http://www.w3.org/2000/svg" version="1.1" viewBox="0 0 200 173.44">
  <!-- Generator: Adobe Illustrator 30.0.0, SVG Export Plug-In . SVG Version: 2.1.1 Build 123)  -->
  <path fill="white" d="M202.71,147.86c-.11-39.37-1.44-92.6-1.44-131.87,0-.6.11-1.2.11-1.69-.11-.1-.22-.1-.33-.2,0,0-.11.1-.11.2-.22.5-.66.5-1.11.5-.55-.1-1.11-.6-1.77-.4-.22.1-.66-.1-.77-.3-.33-.4-.77-.4-1.22-.2-.22.1-.44,0-.66,0-.33,0-.77-.1-1.11-.2-.11,0-.33-.1-.44-.1-.33-.1-.66-.4-1,0,0,0-.22,0-.33-.1-.11-.2-.22-.5-.33-.7-.22-.3-.22-.8-.55-1-.22-.1-.33-.2-.44-.4,0-.1-.22-.2-.22-.3l-.33-.3c-.11-.2-.22-.5-.44-.6-.44-.3-.55-.7-.33-1.2-.33-.1-.55-.3-.89-.3-1.33.1-2.77.3-4.09.4-.22,0-.55.1-.66.2-.89.5-1.77.1-2.66,0-.66,0-1.33-.3-1.99-.4-.77-.1-1.44,0-2.21-.1-.11,0-.22-.1-.33-.2-.22-.21-.66-.15-.89-.1-.33.2-.44.5-.66.8-.55.1-1.33.2-1.88.5-.44.2-.66.3-1,.1l-.11.1c.22.2.33.5.55.7-.33.1-.77.3-1,.2-.55-.1-.77.1-1.22.3-.44.3-1,.5-1.44.7-.11,0-.22,0-.33-.1-.11,0-.22-.1-.22-.1-.55.2-1.11.4-1.66.2-.11,0-.11.1-.22.1-.66.2-1.11.9-1.99.9-.66,0-1.33.5-1.99.5-.77.1-1.44.3-2.1.6-.22.1-.44.1-.55.1-.55-.2-.89.1-1.11.4-.55.7-1.44.9-2.21,1.1-1,.2-1.99.3-2.99.4-.11,0-.22.3-.44.4-.11,0-.22-.1-.22-.1-.55.6-.89,1.5-1.99,1.4h-.11c-.89.5-1.77.3-2.55.1-.22,0-.55-.2-.66-.4-.33-.6-1.22-.8-1.88-.6-.55.2-1.11.3-1.66.5-.89.2-1.66.3-2.55-.1-.89-.4-1.55-.1-1.99.8-.33.6-1.22.7-1.77.2-.33-.3-.55-.2-.89,0l-.66.6c-.11.1-.33.1-.44.1h-.66c-.44,0-.89-.1-1.33-.2-.55-.1-1-.4-1.55-.5-.89-.1-1.11-.8-1.44-1.3-.22-.3-.66-.7-1.11-.6-.44.2-.89,0-1.22-.1-.11,0-.33-.1-.44-.1-.77-.2-1.33.2-1.88.7l-.44.4c-.11.1-.11.3-.22.4-.66.5-1.33.3-2.1,0-.66-.3-1.44,0-1.66.6-.11.4-.22.7-.77.9-.55.3-1.22.5-1.33,1.2,0,.1-.11.2-.22.2-.33.1-.55.2-.89.3h-1c-.66-.1-1.33-.3-1.99-.4-.77-.1-1.44.3-2.21.4l-.11.1c-.22.3-.55.2-.77,0-.44-.4-1.22-.5-1.77-.3-.66.3-1.33.5-1.99.7-.22,0-.44-.1-.55-.1-.22,0-.55-.1-.66,0-.89.6-1.77.4-2.55,0-.44-.2-1.11-.4-1.33-1-.11-.4-.55-.8-.89-1.1-.55-.5-1.11-1.2-2.1-1.2-.22,0-.44-.4-.55-.3-.44.1-.44-.1-.66-.3-.22-.2-.55-.4-.77-.7-.33-.4-.66-.9-1-1.3-.33-.4-.55-.9-.89-1.3-.11-.1-.44-.2-.55-.1l-1.33.6c-.22.1-.33.3-.44.5l-.11-.1c.11-.3.22-.6.33-.7l-1.33-.3c-.33-.1-.89-.1-1.11-.1h-1.77c-.66,0-1.22-.1-1.88,0-.44.1-.77-.1-1.11-.3-.89-.6-1.77-1.3-2.99-1-.11,0-.33-.1-.44-.2-.33-.1-.55-.3-1-.5,0,.3,0,.4.11.6-.22.2-.33.1-.44,0-.11.1-.22.3-.33.3-.55.2-1.11.3-1.66.5-.22.1-.44.2-.55.3-.44.3-.77.8-1.55.7-.11,0-.33.2-.55.2-.22.1-.55.1-.77.2h-.22c-.66.2-1.22.4-1.88.5h-.44c-.55,0-1-.1-1.55-.1s-1.11.2-1.66.2c-.66,0-1.44,0-1.99-.4-.11-.1-.44-.1-.66,0-.77.1-1.55.2-2.21.4s-1,0-1.22-.5c-.11-.2-.33-.4-.55-.6-.33-.2-.66-.5-1-.5-.77,0-1.22-.4-1.77-.7-.89-.5-1.66-1.1-2.77-1v-.5c.22,0,.44,0,.66-.1-.33-.2-.33-.5-.55-.7-.44-.3-.89-.4-1.33-.6-.33-.1-.77-.1-.55.4-.55.1-1,.1-1.22.3-.44.3-.89.1-1.22-.1-.22-.1-.44-.2-.66-.1-1.33.6-2.66.3-3.98.3-.22,0-.44-.1-.77-.1-.44-.1-.77-.3-1.22-.4-.44-.1-1-.2-1.44-.3h-.33c-.77,0-1.55.1-2.21.1-.55,0-1.11-.2-1.77-.3-.11-.8-1-.6-1.55-1-.11-.1-.33,0-.44,0-.66-.1-1.11.2-1.33.7-.33.5-1.22.7-.89,1.5.11.1.33.2.44.4,0,.3-.11.5-.44.4-.11,0-.22.2-.33.3-.11.1-.11.3-.22.3-.66.2-1.11.7-1.88.6h-.22c-.66.5-1.33.4-2.1.3-.33-.1-.77,0-1.22,0-.33,0-.66,0-1-.2-.44-.2-.89-.5-1.33-.7-.44-.2-1-.2-1-.9,0-.1-.22-.2-.22-.3-.77.6-1.44,1.1-2.1,1.59-.33.3-.77.7-.55,1.2,0,.1-.11.2-.11.3-.11.2-.22.4-.44.5-.22.3-.44.6-.66,1l-.66.6c-.22.3-.44.6-.77.8-.77.6-1.55,1.2-2.43,1.79-.44.4-1,.7-1.44,1.1-.77.6-1.66,1.1-2.1,1.99,0,.1-.22.2-.33.3-.55.4-1.44.4-1.44,1.2-.89,0-1.33.6-1.77,1.1-.33.4-.66.9-1.11,1.2-.44.2-1,.1-1.55.1-.22,0-.44,0-.44.1-.44.4-1,.7-1.33,1.2-.33.5-.66.8-1.22.9-.55.1-1.11.6-1.88.3-.66-.2-1.44,0-1.88-.4-.89.1-1.55.3-2.32.4-.89.2-1.88.1-2.66.7-.66.5-1.22,1-2.21.9.11.6.22,1.1.33,1.69.22,1.59.44,3.19.55,4.78.33,1.99.44,3.89.22,5.78-.22,2.69-1.22,94.79-2.21,97.28l-1,2.09c-.11.5.11.8.66.9.66.1.89.5,1.11,1,.22.8-.11,1.59.33,2.39.22.4,0,1.1-.11,1.69-.11.8.11,1.59.44,2.29.77,1.2.89,2.59.89,3.89,0,.3.11.6.22.8.22.2.66.4,1.11.5l2.66,1.2c1.22.6,2.21.5,3.32-.2.11-.1.44-.2.55-.2.77.1,1.55.1,2.21.7.77.6,1.88,1,2.77,1.5.55.3,1.22.7,1.55,1.1.22.2.44.4.66.5,1.22.4,1.88,1.4,2.66,2.19.66.7,1.55,1.1,2.55,1.2,1.11.2,2.21.3,3.32.5.44.1,1,.2,1.44.4.55.2,1.11.2,1.55.5.66.5,1.33.8,2.21.6.33-.1.77.1,1.11.2.11,0,.22.1.33.1,1.22.1,2.32-.1,3.43-.3.44-.1.89-.2,1.33-.4,1.22-.5,2.43-1,3.54-1.59.77-.4,1.55-.8,2.43-.4h.44c.77,0,1.55-.1,2.21-.2.11,0,.33,0,.33-.1.33-.4.89-.4,1.44-.5.89-.1,1.77-.1,2.43-.6.66-.4,1.33-.5,2.1-.6.11,0,.33-.1.44-.1.55-.1,1.11-.4,1.55-.3,1,.2,1.44-.1,2.1-.9.11-.2.44-.3.66-.4.55-.1,1.11,0,1.66-.1.33,0,.66-.3.89-.3.89.1,1.88-.2,2.66.3.11.1.33.1.55.1,1.44.1,2.66.5,3.65,1.3.33.3.77.5,1.11.7.33.2.77.2,1.11.3.33.1.55.2.89.2.55,0,1,.2,1.33.6.11.1.22.2.33.4-.11.3.55,1.1,1,1.1.77,0,1.55.2,2.21.7.11.1.33.1.55,0,.33-.1.55-.1.77.2.11.1.55.1.77.1.55,0,1.22-.1,1.77,0,1,.1,1.88.2,2.88.4.22,0,.44.1.55.2.22.5.77.5,1.11.6.33.1.77.2,1,.2.11-.1.33-.2.55-.4-.44,0-.66.1-.89.1.44-.5.89-.6,1.44-.3.66.5,1.22.5,1.99,0l.66-.3v-.5c.33.1.66.3.89.3.66-.3,1.33-.6,1.88-1,.66-.4,1.22-.9,1.77-1.3.11,0,.11-.1.22-.1.77-.2,1.44-.3,2.21-.5.44-.1.77-.3,1.22-.4.33-.1.55-.1.89-.2h1.11c.22,0,.55,0,.77-.1.11-.2.33-.5.44-.5.33,0,.55.2.89.3.11,0,.11.1.11.2.44.4.77.9,1.22,1.3.55.5,1.11.5,1.44.2.55-.4,1-.7,1.77-.5.11,0,.33.1.44,0,.55-.2,1.22-.4,1.77-.7.33-.1.77-.1.89-.3.33-.6.89-.9,1.44-1.3.33-.3.66-.7,1-.8.77-.2,1.33-.8,1.99-1.2.55-.3.89-.9,1.44-1,.89-.2,1.55-.7,2.32-1.2.44-.3,1-.5,1.55-.4.33.1.77,0,1-.1.44-.2.89-.5,1.33-.7.33-.2.66-.4,1-.4,1.11-.1,1.99-.3,2.55-1.3.22-.4,1.33-.9,1.77-.7.77.3,1.33.1,1.77-.5.33-.3.77-.2,1.11,0,.22.2.44.3.66.3.77.1,1.66,0,2.43.1.66.1,1.33-.1,1.77-.5.44-.4.77-.4,1.44-.2.55.2,1,.7,1.77.6.66-.1,1.44.2,2.21-.1h.44c.66.2,1.33.3,1.88.8.66.5.77-3.19,1.44-2.79,1,.6.77,0,1.77.5.77.3.44-.8,1.33-.6.11,0,1.44.8,1.44.7.55-.3,1.11-3.29,1.66-3.19,1.11.3,2.1.1,3.1-.3.55-.2,1.44-.9,1.88-.6.77.5,1.55.7,2.43.8.11,0,.22.1.33.2.33.4,1.88-.7,2.21-.3.44.6.89,1.2,1.33,1.69.22.2.55.3.66.5.11.5.33.7.89.7.33,0,.66.1.89.3.55.3,1,.6,1.44.9.55.3,1.11.6,1.33,1.1.11.2.22.3.33.4.44.4.89.7,1.33,1.1.66.5,1.22,1.1,1.88,1.59.22.1.44.3.66.4.44.2.89.4,1.22.7.33.3,1.88-1.5,2.1-1.1,0,.1.11.1.22.1.66.5,1.33.3,1.99.1.22-.1.44-.2.55-.1.77.3,1.33,1,2.32,1.1,0,0,.11,0,.11.1.22.6.89.6,1.44.7.33,0,.66.1.89.2.66.3,1.33.7,2.1.9,1,.3,1.99.5,2.77,1,.11,0,.22,0,.22.1.33.2.89.3,1.11.6.33.6,1.22.5,1.66,1h.11c.44,0,.89.1,1.44.1.22-.1.55-.3.77-.3,1,.3,1.99.3,2.66-.5.11-.1.33-.1.55-.1h.89c1-.2,1.88-.4,2.88-.5.44-.1,1,.1,1.44.2.44.1.89.1,1.33.1.55,0,1-.2,1.55-.2.44-.1,1-.1,1.44-.2,1-.2,1.88-.4,2.88-.5.66-3.39.55-7.38.55-11.46Z"/>
</svg>