<?xml version="1.0" encoding="UTF-8"?>
<svg id="Layer_1" xmlns="http://www.w3.org/2000/svg" version="1.1" viewBox="0 0 155 28">
  <!-- Generator: Adobe Illustrator 30.0.0, SVG Export Plug-In . SVG Version: 2.1.1 Build 123)  -->
  <defs>
    <style>
      .st0 {
        fill: #ec0000;
        fill-rule: evenodd;
      }
    </style>
  </defs>
  <g id="Footer">
    <g id="Footer-Módulos">
      <path id="Fill-1" class="st0" d="M155,12.58c0,.91-.11,2.02-.27,2.6-.7-.08-1.39-.11-2.23-.11-.72,0-1.45.06-2.17.17v11.83h-2.95v-13.82c1.26-.44,3.38-.77,5.04-.77.91,0,1.93.03,2.57.11ZM135.22,18.6h6.65c0-2.27-1.18-3.59-3.22-3.59s-3.19,1.24-3.43,3.59ZM144.68,21.15h-9.41c.38,2.46,1.77,3.65,4.4,3.65,1.61,0,3.24-.36,4.72-1.05-.11.8-.27,1.85-.46,2.76-1.34.64-2.76.88-4.34.88-4.93,0-7.32-2.82-7.32-7.55,0-4.12,1.85-7.38,6.54-7.38,4.21,0,6.03,2.85,6.03,6.33,0,.86-.05,1.55-.16,2.35ZM126.93,23.85v-8.51c-.78-.17-1.58-.28-2.36-.28-2.92,0-4.32,1.88-4.32,5.03,0,2.82,1.1,4.81,3.73,4.81,1.18,0,2.14-.41,2.95-1.05ZM129.85,7.71v19.35h-2.71l-.16-1.77c-.75,1.3-1.9,2.1-3.83,2.1-3.54,0-5.9-2.65-5.9-7.3s2.52-7.63,7.48-7.63c.78,0,1.5.08,2.2.22v-4.56c.91-.33,1.96-.41,2.92-.41ZM114.89,17.77v9.29h-2.95v-8.76c0-2.18-.7-3.23-3.65-3.23-.7,0-1.53.08-2.33.22v11.77h-2.95v-13.82c1.88-.47,3.94-.77,5.36-.77,4.93,0,6.51,1.96,6.51,5.31ZM96.85,23.91v-8.68c-.62-.11-1.29-.17-2.12-.17-3.06,0-4.48,1.94-4.48,5.03,0,2.82,1.1,4.81,3.73,4.81,1.15,0,2.09-.39,2.87-1ZM99.8,13.24v13.82h-2.71l-.16-1.66c-.75,1.22-1.9,1.99-3.78,1.99-3.54,0-5.9-2.65-5.9-7.3s2.52-7.63,7.48-7.63c1.93,0,3.51.22,5.07.77ZM83.98,24.79c.86,0,1.66-.17,2.31-.41-.08.83-.19,1.77-.35,2.57-.8.33-1.66.44-2.49.44-2.87,0-4.69-1.35-4.69-4.73v-14.51c.91-.3,2.04-.44,2.95-.44v5.22h4.66c-.05.94-.13,1.8-.27,2.6h-4.4v6.77c0,1.8.86,2.49,2.28,2.49ZM75.81,17.77v9.29h-2.95v-8.76c0-2.18-.7-3.23-3.65-3.23-.7,0-1.53.08-2.33.22v11.77h-2.95v-13.82c1.88-.47,3.94-.77,5.36-.77,4.93,0,6.51,1.96,6.51,5.31ZM57.76,23.91v-8.68c-.62-.11-1.29-.17-2.12-.17-3.06,0-4.48,1.94-4.48,5.03,0,2.82,1.1,4.81,3.73,4.81,1.15,0,2.09-.39,2.87-1ZM60.71,13.24v13.82h-2.71l-.16-1.66c-.75,1.22-1.9,1.99-3.78,1.99-3.54,0-5.9-2.65-5.9-7.3s2.52-7.63,7.48-7.63c1.93,0,3.51.22,5.07.77ZM33.93,26.45c.05-1.13.21-1.91.51-2.79,1.5.72,3.43,1.08,4.91,1.08,2.49,0,3.89-.83,3.89-2.46s-1.02-2.35-3.54-3.48l-1.37-.61c-2.52-1.13-4.24-2.6-4.24-5.53,0-3.15,2.12-5.17,6.46-5.17,1.74,0,3.38.25,4.91.8-.08,1.11-.27,1.96-.54,2.76-1.45-.55-3.16-.8-4.4-.8-2.33,0-3.4.94-3.4,2.4s1.05,2.27,2.92,3.1l1.45.64c3.4,1.49,4.83,3.07,4.83,5.75,0,3.18-2.33,5.36-6.89,5.36-2.2,0-3.99-.33-5.5-1.05ZM19.63,9.91L15.17,1.93c-.34-.61-.58-1.26-.71-1.93l-.19.33c-1.11,1.98-1.11,4.41,0,6.38l3.58,6.38c1.11,1.98,1.11,4.41,0,6.38l-.19.33c-.13-.67-.37-1.32-.71-1.93l-5.36-9.58c-.34-.61-.58-1.26-.71-1.93l-.19.33c-1.1,1.97-1.11,4.39-.01,6.36l3.59,6.4c1.11,1.98,1.11,4.41,0,6.38l-.19.33c-.13-.67-.37-1.32-.71-1.93l-4.47-7.98c-.6-1.07-.87-2.28-.82-3.47C3.3,14.11,0,16.85,0,20.02c0,4.41,6.39,7.98,14.27,7.98s14.27-3.57,14.27-7.98c0-3.17-3.3-5.91-8.09-7.19-.04-1.01-.32-2.01-.82-2.91Z"/>
    </g>
  </g>
</svg>